<svg xmlns="http://www.w3.org/2000/svg" viewBox="0 0 24 24"><defs><style>.a{fill:#f8de40;}.b{fill:#864e20;}.c{fill:#e7c930;}.d{fill:#f06880;}</style></defs><rect class="a" x="1" y="1" width="22" height="22" rx="7.656"/><path class="b" d="M8.907,9.844a.182.182,0,0,1-.331.1,2.016,2.016,0,0,0-.569-.567,1.731,1.731,0,0,0-1.915,0,2.016,2.016,0,0,0-.571.569.182.182,0,0,1-.331-.1,1.632,1.632,0,0,1,.346-1.023,1.927,1.927,0,0,1,3.026,0A1.64,1.64,0,0,1,8.907,9.844Z"/><path class="b" d="M18.81,9.844a.182.182,0,0,1-.331.1,2.026,2.026,0,0,0-.568-.567,1.732,1.732,0,0,0-1.916,0,2.016,2.016,0,0,0-.571.569.182.182,0,0,1-.331-.1,1.632,1.632,0,0,1,.346-1.023,1.927,1.927,0,0,1,3.026,0A1.64,1.64,0,0,1,18.81,9.844Z"/><path class="c" d="M23,13.938a14.69,14.69,0,0,1-12.406,6.531c-5.542,0-6.563-1-9.142-2.529A7.66,7.66,0,0,0,8.656,23h6.688A7.656,7.656,0,0,0,23,15.344Z"/><path class="b" d="M16.666,12.583H7.334a.493.493,0,0,0-.492.544c.123,1.175.875,3.842,5.158,3.842s5.035-2.667,5.158-3.842A.493.493,0,0,0,16.666,12.583Z"/><path class="d" d="M12,16.969a6.538,6.538,0,0,0,2.959-.6,1.979,1.979,0,0,0-1.209-.853c-1.344-.3-1.75.109-1.75.109s-.406-.406-1.75-.109a1.979,1.979,0,0,0-1.209.853A6.538,6.538,0,0,0,12,16.969Z"/></svg>