<svg width="16" height="16" viewBox="0 0 16 16" fill="none" xmlns="http://www.w3.org/2000/svg">
<rect width="16" height="16" fill="white"/>
<rect width="16" height="16" rx="8" fill="#94EBF1"/>
<g style="mix-blend-mode:hard-light" filter="url(#filter0_b_0_1)">
<path d="M6.00008 8.5C4.5001 2.5 9.99984 1.5 11 1C8.99988 2.5 10.9998 6 6.00008 8.5Z" fill="#D9D9D9"/>
<path d="M6.00008 8.5C4.5001 2.5 9.99984 1.5 11 1C8.99988 2.5 10.9998 6 6.00008 8.5ZM6.00008 8.5C5 9.5 5 10 5 10" stroke="black" stroke-width="0.2"/>
</g>
<path d="M5 8.50006C4.66667 8.50006 3.6 9.5 2 11.5L2.5 11.4999L3.5 11C4.7 9.4 5 9.5 5 9.5L6 10L6.5 10.5L6 11.5H4L4.5 12H5.5H7H8H9V10.5001C9 10.5001 6.5 10.5001 5 8.50006Z" fill="#FF6C6C" fill-opacity="0.67"/>
<path d="M2 11.5L1.92191 11.4375L2.00002 11.6L2 11.5ZM5 8.50006L5.08 8.44006L5.05 8.40006H5V8.50006ZM9 10.5001H9.1V10.4001L9 10.4001L9 10.5001ZM2.5 11.4999L2.50002 11.5999L2.54471 11.5893L2.5 11.4999ZM3.5 11L3.54471 11.0894L3.58 11.06L3.5 11ZM5 9.5L5.04472 9.41056L5.03836 9.40738L5.03162 9.40513L5 9.5ZM6.5 10.5L6.58944 10.5447L6.62168 10.4803L6.57071 10.4293L6.5 10.5ZM6 11.5V11.6H6.0618L6.08944 11.5447L6 11.5ZM4 11.5V11.4H3.75858L3.92929 11.5707L4 11.5ZM4.5 12L4.42929 12.0707L4.45858 12.1H4.5V12ZM9 12V12.1H9.1V12H9ZM6 10L6.07071 9.92929C6.06311 9.92169 6.05433 9.91536 6.04472 9.91056L6 10ZM2.07809 11.5625C2.87674 10.5642 3.54066 9.8175 4.04512 9.32132C4.29757 9.07303 4.50819 8.88933 4.67444 8.76843C4.75762 8.70794 4.82768 8.66464 4.88478 8.63685C4.94368 8.60818 4.98064 8.60006 5 8.60006V8.40006C4.93603 8.40006 4.86673 8.42319 4.79725 8.45702C4.72596 8.49172 4.64551 8.54217 4.55681 8.60668C4.37931 8.73576 4.16077 8.92705 3.90488 9.17874C3.39267 9.68253 2.72326 10.4358 1.92191 11.4375L2.07809 11.5625ZM4.92 8.56006C5.68653 9.5821 6.70754 10.0916 7.53309 10.3456C7.94609 10.4727 8.31144 10.5363 8.5739 10.5681C8.70519 10.584 8.81091 10.592 8.88418 10.596C8.92082 10.598 8.94936 10.599 8.96894 10.5995C8.97874 10.5998 8.98629 10.5999 8.9915 10.6C8.99411 10.6 8.99613 10.6 8.99755 10.6001C8.99826 10.6001 8.99882 10.6001 8.99923 10.6001C8.99943 10.6001 8.9996 10.6001 8.99973 10.6001C8.99979 10.6001 8.99986 10.6001 8.99989 10.6001C8.99995 10.6001 9 10.6001 9 10.5001C9 10.4001 9.00003 10.4001 9.00005 10.4001C9.00004 10.4001 9.00005 10.4001 9.00004 10.4001C9.00002 10.4001 8.99996 10.4001 8.99986 10.4001C8.99966 10.4001 8.99931 10.4001 8.99881 10.4001C8.99782 10.4001 8.99623 10.4 8.99406 10.4C8.98972 10.4 8.98305 10.3998 8.97417 10.3996C8.9564 10.3991 8.92977 10.3982 8.89512 10.3963C8.82581 10.3925 8.72449 10.3849 8.59797 10.3695C8.34481 10.3389 7.99141 10.2774 7.59191 10.1545C6.79246 9.9085 5.81347 9.41802 5.08 8.44006L4.92 8.56006ZM2.00002 11.6L2.50002 11.5999L2.49998 11.3999L1.99998 11.4L2.00002 11.6ZM2.54471 11.5893L3.54471 11.0894L3.45529 10.9106L2.45529 11.4105L2.54471 11.5893ZM3.58 11.06C4.17803 10.2626 4.54677 9.89587 4.76139 9.72894C4.86856 9.64559 4.9335 9.61508 4.966 9.60424C4.98191 9.59894 4.98888 9.59874 4.98847 9.59876C4.98825 9.59877 4.98626 9.59882 4.98274 9.59834C4.98099 9.5981 4.97889 9.59773 4.97647 9.59717C4.97527 9.59689 4.97398 9.59656 4.97263 9.59618C4.97196 9.59599 4.97126 9.59578 4.97055 9.59557C4.9702 9.59546 4.96984 9.59534 4.96948 9.59523C4.9693 9.59517 4.96902 9.59508 4.96893 9.59505C4.96865 9.59496 4.96838 9.59487 5 9.5C5.03162 9.40513 5.03134 9.40504 5.03106 9.40495C5.03097 9.40492 5.03069 9.40482 5.0305 9.40476C5.03011 9.40464 5.02973 9.40452 5.02934 9.4044C5.02855 9.40416 5.02775 9.40392 5.02692 9.40369C5.02527 9.40322 5.02354 9.40278 5.02173 9.40236C5.01811 9.40151 5.01418 9.40078 5.00994 9.4002C5.00144 9.39903 4.99183 9.3985 4.98106 9.3989C4.95956 9.39969 4.93371 9.40419 4.90275 9.41451C4.8415 9.43492 4.75644 9.47941 4.63861 9.57106C4.40323 9.75413 4.02197 10.1374 3.42 10.94L3.58 11.06ZM6.41056 10.4553L5.91056 11.4553L6.08944 11.5447L6.58944 10.5447L6.41056 10.4553ZM6 11.4H4V11.6H6V11.4ZM3.92929 11.5707L4.42929 12.0707L4.57071 11.9293L4.07071 11.4293L3.92929 11.5707ZM4.5 12.1H5.5V11.9H4.5V12.1ZM8.9 10.5001V12H9.1V10.5001H8.9ZM4.95528 9.58944L5.95528 10.0894L6.04472 9.91056L5.04472 9.41056L4.95528 9.58944ZM5.92929 10.0707L6.42929 10.5707L6.57071 10.4293L6.07071 9.92929L5.92929 10.0707ZM5.5 12.1H7V11.9H5.5V12.1ZM7 12.1H8V11.9H7V12.1ZM8 12.1H9V11.9H8V12.1Z" fill="black"/>
<path d="M12 10.1633C12 10.1633 12 9.79593 9 10.1633V12L12 12" stroke="black" stroke-width="0.2"/>
<path d="M6 8.50006C7 3 10 1.49994 10.5 1.5" stroke="black" stroke-width="0.2"/>
<path d="M6.16279 8.20416C6.17425 8.04936 6.21149 7.90335 6.2885 7.76858C6.33203 7.6924 6.25347 7.94346 6.21059 8.02001C6.20269 8.03413 6.17652 8.10987 6.17961 8.05896C6.18991 7.88905 6.23555 7.73262 6.29381 7.57381C6.34339 7.43867 6.39332 7.31428 6.47265 7.19401C6.48999 7.16772 6.51228 7.09683 6.53285 7.07626C6.59225 7.01686 6.47791 7.23507 6.44786 7.31353C6.37164 7.51254 6.29714 7.70617 6.25043 7.91377C6.23686 7.9741 6.20415 8.02734 6.19112 8.0873C6.18325 8.12347 6.18548 8.1654 6.16987 8.19885C6.16417 8.21107 6.15179 8.24934 6.15393 8.23603C6.1777 8.08865 6.22809 7.93901 6.27611 7.79868C6.37546 7.50831 6.51211 7.23316 6.63466 6.95231C6.75372 6.67948 6.39552 7.49818 6.29736 7.7792C6.29171 7.79536 6.24496 7.96389 6.26371 7.8217C6.29801 7.56162 6.383 7.30741 6.47265 7.06209C6.57794 6.77398 6.94338 5.92956 6.84006 6.21838C6.74584 6.48177 6.64483 6.74253 6.5541 7.0072C6.49209 7.18809 6.4543 7.41356 6.3611 7.58443C6.21832 7.84619 6.5411 7.01428 6.66565 6.74338C6.82611 6.39438 6.98599 6.04989 7.15966 5.70578C7.1861 5.65339 7.20846 5.59503 7.23934 5.54466C7.26242 5.50699 7.20588 5.62644 7.18799 5.66683C7.13426 5.78808 7.09226 5.9135 7.04014 6.03512C7.01039 6.10453 6.97421 6.1687 6.93656 6.23432C6.93616 6.23501 6.88508 6.33766 6.87104 6.33436C6.8508 6.3296 6.87302 6.29254 6.87813 6.27239C6.89124 6.22061 6.92843 6.09981 6.94187 6.05814C6.96386 5.98993 7.23479 5.19526 7.28272 5.21443C7.2852 5.21542 7.28446 5.21987 7.2836 5.2224C7.26698 5.27144 7.24154 5.31703 7.21986 5.36405C7.11189 5.59824 7.00692 5.83361 6.91354 6.07408C6.80306 6.35855 6.74118 6.66058 6.63732 6.94523C6.60683 7.0288 6.56079 7.10576 6.53551 7.19135C6.51159 7.2723 6.50798 7.38256 6.46203 7.45341C6.39775 7.5525 6.37626 7.70483 6.36198 7.81904C6.34586 7.948 6.30118 8.06693 6.27434 8.19442C6.26347 8.24606 6.29032 8.07295 6.29381 8.06074C6.3651 7.81123 6.47612 7.57397 6.57535 7.33477C6.69041 7.05738 6.78369 6.77096 6.89937 6.4946C6.96396 6.34032 7.03323 6.1895 7.08883 6.03158C7.14457 5.87328 7.17497 5.69935 7.24819 5.5482C7.30893 5.4228 7.3795 5.30409 7.43322 5.17548C7.60751 4.75824 7.76382 4.34673 7.97681 3.94665C8.15727 3.60768 8.32795 3.27164 8.55492 2.96129C8.62921 2.85972 8.6973 2.75785 8.77802 2.66028C8.8555 2.56664 8.946 2.48911 9.01972 2.39203C9.15136 2.21864 9.29565 2.04776 9.45087 1.89537C9.60633 1.74273 9.8343 1.70018 10.0352 1.63862C10.118 1.61325 10.1953 1.57935 10.253 1.51291C10.29 1.47019 10.3077 1.43146 10.3672 1.43146C10.4044 1.43146 10.3238 1.49216 10.299 1.51999C10.1623 1.67372 10.0272 1.83197 9.85988 1.9538C9.68471 2.08135 9.51054 2.18173 9.35083 2.33094C8.82268 2.82434 8.37646 3.37602 7.99009 3.98649C7.87916 4.16176 7.75105 4.32551 7.6457 4.5044C7.54493 4.67553 7.45951 4.85418 7.35443 5.02232C7.21827 5.24017 7.09055 5.47217 6.97551 5.70224" stroke="#323232" stroke-opacity="0.63" stroke-width="0.4" stroke-linecap="round"/>
<path d="M10.0834 10.4594C10.0995 10.467 10.0951 10.4715 10.0793 10.4715" stroke="black" stroke-width="0.4" stroke-linecap="round"/>
<path d="M2.5 11.5C4 11.5 5 10 5 10" stroke="black" stroke-width="0.2"/>
<path d="M9.61304 10.5521H9.59985" stroke="black" stroke-width="0.4" stroke-linecap="round"/>
<path d="M5.43355 9.16797C5.35832 9.19952 5.31837 9.27173 5.26949 9.33116C5.25144 9.3531 5.23762 9.37617 5.22261 9.40017C5.21049 9.41957 5.20741 9.44327 5.19353 9.46094C5.18836 9.46752 5.14549 9.53538 5.14145 9.53255C5.1313 9.52545 5.15587 9.46268 5.16576 9.45703C5.18276 9.44731 5.18644 9.41521 5.19896 9.40061C5.21362 9.3835 5.22844 9.36207 5.24214 9.34288C5.26308 9.31357 5.2782 9.28367 5.29293 9.25087C5.30447 9.22516 5.32634 9.20642 5.34392 9.18555C5.3543 9.17323 5.36543 9.15936 5.37713 9.14844C5.38945 9.13694 5.39443 9.12506 5.40621 9.11328" stroke="black" stroke-width="0.1" stroke-linecap="round"/>
<path d="M4.99609 10.0664C5.00479 10.0421 5.01502 10.0177 5.02648 9.99608C5.03232 9.98504 5.02758 10.0077 5.02734 10.0156C5.02722 10.0199 5.01953 10.0461 5.01953 10.0312C5.01953 10.0172 5.02704 10.0087 5.03125 9.99608" stroke="black" stroke-width="0.1" stroke-linecap="round"/>
<path d="M5.06641 9.98438C5.05788 10.0053 5.04312 10.0664 5.01562 10.0664" stroke="black" stroke-width="0.1" stroke-linecap="round"/>
<path d="M5.35938 9.14453C5.33453 9.18089 5.30685 9.21298 5.27648 9.24479C5.26435 9.25748 5.25717 9.27263 5.24392 9.28429C5.22973 9.29678 5.21692 9.30942 5.2053 9.32422C5.17601 9.36149 5.15932 9.40875 5.14453 9.45312" stroke="black" stroke-width="0.1" stroke-linecap="round"/>
<path d="M5.36334 9.16407C5.29432 9.26393 5.0869 9.56324 5.15522 9.4629C5.27683 9.28428 5.40174 9.10848 5.54172 8.94358C5.58935 8.88748 5.63932 8.83371 5.68929 8.77974C5.70019 8.76797 5.69843 8.76773 5.69472 8.77627C5.68156 8.80652 5.64499 8.83182 5.62332 8.85569C5.57638 8.90737 5.53738 8.96399 5.49832 9.02171C5.43458 9.11589 5.3742 9.21297 5.31689 9.31121C5.29966 9.34074 5.28547 9.37134 5.26698 9.40018C5.21338 9.4838 5.38905 9.24343 5.45209 9.16667C5.48652 9.12476 5.52214 9.08366 5.55431 9.03994C5.55909 9.03344 5.54603 9.05381 5.54129 9.06034C5.5026 9.11364 5.45778 9.16146 5.42063 9.21615C5.39183 9.25854 5.36353 9.30033 5.32926 9.33855C5.30982 9.36023 5.29927 9.38423 5.28434 9.40886C5.27282 9.42787 5.26638 9.45002 5.25418 9.46832C5.2437 9.48404 5.25744 9.45315 5.25874 9.45053C5.30007 9.36708 5.38315 9.31567 5.42605 9.23417C5.44072 9.20629 5.49503 9.12873 5.47792 9.15517C5.43901 9.2153 5.4015 9.2732 5.35639 9.329C5.33622 9.35396 5.32364 9.38402 5.30496 9.41016C5.29399 9.42552 5.28236 9.44192 5.27306 9.45834C5.26156 9.47863 5.25223 9.49576 5.23768 9.51455C5.22092 9.5362 5.20707 9.55809 5.1932 9.5816C5.17905 9.60557 5.20371 9.52638 5.21533 9.50109C5.24257 9.44182 5.2782 9.38751 5.30691 9.32922C5.32296 9.29664 5.33768 9.25877 5.36334 9.23221C5.36874 9.22662 5.37538 9.22203 5.38178 9.21767C5.38841 9.21315 5.37494 9.23221 5.37093 9.23916C5.31463 9.33689 5.28355 9.44387 5.25005 9.55079" stroke="black" stroke-width="0.1" stroke-linecap="round"/>
<defs>
<filter id="filter0_b_0_1" x="0.900024" y="-3.08942" width="14.16" height="17.0911" filterUnits="userSpaceOnUse" color-interpolation-filters="sRGB">
<feFlood flood-opacity="0" result="BackgroundImageFix"/>
<feGaussianBlur in="BackgroundImageFix" stdDeviation="2"/>
<feComposite in2="SourceAlpha" operator="in" result="effect1_backgroundBlur_0_1"/>
<feBlend mode="normal" in="SourceGraphic" in2="effect1_backgroundBlur_0_1" result="shape"/>
</filter>
</defs>
</svg>
