<svg width="32" height="32" viewBox="0 0 32 32" fill="none" xmlns="http://www.w3.org/2000/svg">
<rect width="32" height="32" fill="white"/>
<path d="M32 16C32 24.8366 24.8366 32 16 32C7.16344 32 0 24.8366 0 16C0 7.16344 7.16344 0 16 0C24.8366 0 32 7.16344 32 16Z" fill="#94EBF1"/>
<g style="mix-blend-mode:hard-light" filter="url(#filter0_b_0_1)">
<path d="M12.8335 18.5C10.0835 8.5 20.1664 6.83333 22 6C18.3331 8.5 21.9996 14.3333 12.8335 18.5Z" fill="#D9D9D9"/>
<path d="M12.8335 18.5C10.0835 8.5 20.1664 6.83333 22 6C18.3331 8.5 21.9996 14.3333 12.8335 18.5ZM12.8335 18.5C11 20.1667 11 21 11 21" stroke="black" stroke-width="0.6"/>
</g>
<path d="M11 17C10.3333 17 8.2 18.9999 5 23L6 22.9998L8 22C10.4 18.7999 11 18.9999 11 18.9999L13 19.9999L14 20.9999L13 23H9L10 24H12H15H17H19V21.0001C19 21.0001 14 21.0001 11 17Z" fill="#FF6C6C" fill-opacity="0.67"/>
<path d="M5 23L4.76574 22.8126L5.00006 23.3L5 23ZM11 17L11.24 16.82L11.15 16.7H11V17ZM19 21.0001H19.3V20.7001L19 20.7001L19 21.0001ZM6 22.9998L6.00006 23.2998L6.13415 23.2681L6 22.9998ZM8 22L8.13415 22.2683L8.24 22.18L8 22ZM11 18.9999L11.1342 18.7316L11.1151 18.7221L11.0949 18.7153L11 18.9999ZM14 20.9999L14.2683 21.1341L14.365 20.9407L14.2121 20.7878L14 20.9999ZM13 23V23.3H13.1854L13.2683 23.1341L13 23ZM9 23V22.7H8.27574L8.78787 23.2121L9 23ZM10 24L9.78787 24.2121L9.87573 24.3H10V24ZM19 24V24.3H19.3V24H19ZM13 19.9999L13.2121 19.7878C13.1893 19.765 13.163 19.746 13.1342 19.7316L13 19.9999ZM5.23426 23.1874C6.83021 21.1924 8.15532 19.7024 9.16037 18.7138C9.66353 18.2189 10.0808 17.8553 10.4077 17.6176C10.5713 17.4986 10.7062 17.4156 10.8133 17.3635C10.9258 17.3087 10.9836 17.3 11 17.3V16.7C10.8498 16.7 10.695 16.7538 10.5507 16.824C10.4011 16.8969 10.235 17.0013 10.0548 17.1324C9.69417 17.3946 9.25313 17.781 8.73963 18.2861C7.71135 19.2975 6.36979 20.8075 4.76574 22.8126L5.23426 23.1874ZM10.76 17.18C12.3096 19.2462 14.3726 20.2747 16.0368 20.7868C16.8695 21.043 17.6062 21.1712 18.1358 21.2354C18.4007 21.2675 18.6144 21.2837 18.7629 21.2918C18.8372 21.2959 18.8952 21.298 18.9353 21.299C18.9553 21.2995 18.9709 21.2998 18.9817 21.2999C18.9872 21.3 18.9914 21.3 18.9945 21.3001C18.996 21.3001 18.9972 21.3001 18.9981 21.3001C18.9986 21.3001 18.999 21.3001 18.9993 21.3001C18.9995 21.3001 18.9996 21.3001 18.9997 21.3001C18.9999 21.3001 19 21.3001 19 21.0001C19 20.7001 19.0001 20.7001 19.0002 20.7001C19.0002 20.7001 19.0002 20.7001 19.0002 20.7001C19.0002 20.7001 19.0002 20.7001 19 20.7001C18.9997 20.7001 18.9991 20.7001 18.9983 20.7001C18.9965 20.7001 18.9935 20.7 18.9894 20.7C18.9812 20.6999 18.9683 20.6997 18.951 20.6992C18.9163 20.6983 18.864 20.6965 18.7957 20.6927C18.6591 20.6852 18.4586 20.6701 18.208 20.6398C17.7063 20.5789 17.0055 20.4571 16.2132 20.2133C14.6274 19.7254 12.6904 18.7539 11.24 16.82L10.76 17.18ZM5.00006 23.3L6.00006 23.2998L5.99994 22.6998L4.99994 22.7L5.00006 23.3ZM6.13415 23.2681L8.13415 22.2683L7.86585 21.7316L5.86585 22.7315L6.13415 23.2681ZM8.24 22.18C9.43409 20.5878 10.1653 19.8625 10.5842 19.5367C10.7932 19.3742 10.913 19.3201 10.9636 19.3033C10.9879 19.2952 10.9924 19.2969 10.9806 19.2974C10.9747 19.2976 10.9649 19.2975 10.9519 19.2957C10.9454 19.2948 10.9382 19.2935 10.9303 19.2917C10.9264 19.2907 10.9223 19.2897 10.9181 19.2885C10.916 19.2879 10.9139 19.2873 10.9117 19.2866C10.9106 19.2863 10.9095 19.286 10.9084 19.2856C10.9079 19.2854 10.9071 19.2852 10.9068 19.2851C10.906 19.2848 10.9051 19.2845 11 18.9999C11.0949 18.7153 11.094 18.715 11.0932 18.7148C11.0929 18.7147 11.0921 18.7144 11.0915 18.7142C11.0904 18.7138 11.0892 18.7135 11.0881 18.7131C11.0858 18.7124 11.0834 18.7117 11.081 18.711C11.0762 18.7097 11.0712 18.7084 11.0661 18.7072C11.0558 18.7048 11.0449 18.7028 11.0335 18.7012C11.0105 18.6981 10.9855 18.6968 10.9584 18.6978C10.9045 18.6998 10.8433 18.7109 10.7739 18.7341C10.637 18.7797 10.4568 18.8757 10.2158 19.0631C9.73469 19.4373 8.96591 20.2121 7.76 21.82L8.24 22.18ZM13.7317 20.8658L12.7317 22.8658L13.2683 23.1341L14.2683 21.1341L13.7317 20.8658ZM13 22.7H9V23.3H13V22.7ZM8.78787 23.2121L9.78787 24.2121L10.2121 23.7879L9.21213 22.7879L8.78787 23.2121ZM10 24.3H12V23.7H10V24.3ZM18.7 21.0001V24H19.3V21.0001H18.7ZM10.8658 19.2682L12.8658 20.2683L13.1342 19.7316L11.1342 18.7316L10.8658 19.2682ZM12.7879 20.2121L13.7879 21.2121L14.2121 20.7878L13.2121 19.7878L12.7879 20.2121ZM12 24.3H15V23.7H12V24.3ZM15 24.3H17V23.7H15V24.3ZM17 24.3H19V23.7H17V24.3Z" fill="black"/>
<path d="M26 20.4082C26 20.4082 26 19.4898 19 20.4082V25L26 25" stroke="black" stroke-width="0.6"/>
<path d="M13 18C14.7778 9.35705 20.1111 6.99981 21 6.9999" stroke="black" stroke-width="0.6"/>
<path d="M6 23C9 23 11 21 11 21" stroke="black" stroke-width="0.6"/>
<path d="M12 19.2608C11.7446 19.4113 11.6089 19.7557 11.4429 20.0391C11.3817 20.1438 11.3347 20.2538 11.2838 20.3682C11.2426 20.4608 11.2322 20.5738 11.185 20.658C11.1675 20.6895 11.0219 21.0131 11.0082 20.9996C10.9737 20.9657 11.0571 20.6664 11.0907 20.6394C11.1485 20.5931 11.161 20.4399 11.2035 20.3703C11.2532 20.2887 11.3035 20.1865 11.3501 20.095C11.4212 19.9552 11.4725 19.8126 11.5225 19.6562C11.5617 19.5336 11.636 19.4442 11.6957 19.3446C11.7309 19.2859 11.7687 19.2197 11.8084 19.1677C11.8503 19.1128 11.8672 19.0562 11.9072 19" stroke="black" stroke-width="0.1" stroke-linecap="round"/>
<path d="M12 19C11.8844 19.2356 11.7555 19.4436 11.6141 19.6498C11.5577 19.7321 11.5243 19.8302 11.4626 19.9058C11.3966 19.9867 11.337 20.0686 11.2828 20.1646C11.1465 20.4061 11.0688 20.7124 11 21" stroke="black" stroke-width="0.1" stroke-linecap="round"/>
<path d="M11.7561 19.0635C11.5902 19.2822 11.0919 19.9375 11.2568 19.7174C11.5503 19.3257 11.8485 18.9418 12.1685 18.5891C12.2774 18.469 12.3894 18.3554 12.5015 18.2413C12.5259 18.2164 12.5229 18.2153 12.5126 18.2347C12.4761 18.3034 12.4003 18.3527 12.3514 18.4033C12.2457 18.5129 12.1519 18.6369 12.0574 18.7636C11.9033 18.9702 11.7539 19.185 11.6094 19.4035C11.566 19.4692 11.5275 19.5385 11.4821 19.6021C11.3506 19.7866 11.7668 19.2632 11.9121 19.0984C11.9914 19.0083 12.0724 18.9207 12.1485 18.8255C12.1598 18.8114 12.1278 18.8563 12.1165 18.8706C12.0247 18.9867 11.9244 19.0876 11.8347 19.2076C11.7651 19.3006 11.6967 19.3923 11.6193 19.4735C11.5754 19.5195 11.5462 19.574 11.509 19.6286C11.4803 19.6708 11.4592 19.7221 11.4296 19.7624C11.4041 19.7969 11.442 19.7268 11.4454 19.7209C11.5552 19.5329 11.7247 19.4356 11.8364 19.2528C11.8746 19.1903 12.0047 19.0207 11.9628 19.0789C11.8676 19.2115 11.7758 19.3391 11.6715 19.4592C11.6249 19.5129 11.5894 19.5813 11.5449 19.6384C11.5188 19.6719 11.491 19.7077 11.4673 19.7444C11.4381 19.7896 11.4141 19.8279 11.3801 19.8686C11.3409 19.9154 11.3068 19.9638 11.272 20.016C11.2364 20.0693 11.3148 19.8862 11.3464 19.8289C11.4206 19.6947 11.5075 19.5751 11.5839 19.4438C11.6265 19.3703 11.6692 19.2837 11.7263 19.2279C11.7383 19.2162 11.752 19.2072 11.7653 19.1988C11.779 19.19 11.7468 19.2316 11.7367 19.2471C11.5942 19.4648 11.4923 19.7128 11.3861 19.96" stroke="black" stroke-width="0.4" stroke-linecap="round"/>
<path d="M20.5481 7.25327C20.3264 7.25327 19.9571 7.17434 19.7528 7.26187C19.6515 7.30531 19.3235 7.49306 19.2714 7.58425C19.2342 7.64946 18.8352 7.78643 18.8545 7.82496C18.8676 7.85118 18.9211 7.76708 18.9233 7.76478C19.0442 7.63415 19.3017 7.582 19.4563 7.50473C19.7537 7.35601 20.0178 7.15823 20.3224 7.02116C20.4872 6.94701 20.6747 6.83952 20.8532 6.80194C21.1117 6.74752 20.3989 7.07437 20.1569 7.1802C19.7288 7.36738 19.1097 7.48801 18.7556 7.81207C18.5278 8.02059 18.2233 8.12326 17.9905 8.31928C17.974 8.33319 18.0167 8.27963 18.0249 8.2677C18.1397 8.10126 18.4796 8.02567 18.6546 7.95821C18.9441 7.84659 19.2471 7.74474 19.5164 7.58855C19.7607 7.44689 19.935 7.20049 20.2063 7.08994C20.9727 6.7777 18.6822 7.75436 17.9884 8.20537C17.6971 8.39471 17.4953 8.68688 17.2254 8.90386C16.991 9.09229 16.8 9.32645 16.6021 9.55507C16.3105 9.89197 16.0306 10.2421 15.779 10.6103C15.5966 10.8773 15.4916 11.1853 15.3083 11.4485C14.8995 12.0356 14.6727 12.7463 14.3798 13.3957C14.1559 13.8922 13.8306 14.3964 13.7007 14.9302C13.5865 15.3998 13.4447 15.8624 13.3224 16.3272C13.2368 16.6526 13.1129 16.9582 13.043 17.2901C13.0238 17.3813 12.9498 17.9006 13.0086 17.7586C13.3089 17.0342 13.5747 16.2927 13.8597 15.5621C13.9386 15.36 14.1081 14.736 14.0854 14.9517C14.0529 15.2608 13.907 15.5706 13.806 15.8587C13.6058 16.4294 13.396 17.0126 13.3224 17.6167C13.3053 17.7573 13.3138 17.903 13.3138 18.0444C13.3138 18.1361 13.1484 18.6514 13.0215 18.5065C12.9273 18.3987 12.9657 18.201 12.9657 18.0724C12.9657 18.0525 12.998 17.7783 13.0044 17.8918C13.006 17.9219 12.9863 18.0062 13.0044 17.9821C13.0362 17.9397 13.0385 17.8817 13.0559 17.8316C13.1444 17.5778 13.2441 17.329 13.3439 17.0794C13.5078 16.6697 13.6052 16.242 13.7308 15.82C13.8141 15.54 13.9182 15.2681 14.0446 15.0033C14.2474 14.5783 14.5517 14.2086 14.7495 13.7847C14.9709 13.3102 15.2558 12.7415 15.6178 12.3555C15.7166 12.2501 15.7737 12.1163 15.8434 11.9923C16.0879 11.5577 16.4473 11.1644 16.7483 10.7651C17.296 10.0382 17.8432 9.39981 18.5837 8.86947C19.1506 8.46347 19.7541 8.15917 20.187 7.61434C20.2715 7.508 20.5651 7.22629 20.4836 7.33494C20.2264 7.67785 19.7504 7.93102 19.3746 8.11725C18.8749 8.36484 18.455 8.74551 17.9733 9.01777C17.4343 9.32245 17.0737 9.80086 16.6623 10.2514C16.3878 10.5521 16.0849 10.8418 15.8628 11.1842C15.7462 11.3639 15.6554 11.5507 15.5576 11.7408C15.3976 12.052 15.1578 12.3152 14.9838 12.6198C14.7885 12.9615 14.5249 13.2911 14.3798 13.6579C14.1605 14.2124 14.0901 14.8244 13.8339 15.3601C13.7522 15.531 13.6692 15.7018 13.5889 15.8737C13.4569 16.1566 13.5078 15.7159 13.5288 15.6266C13.6517 15.1012 13.9151 14.6333 14.0682 14.12C14.1543 13.8312 14.2322 13.5506 14.397 13.2968C14.6127 12.9647 14.7904 12.6071 14.9902 12.2652C15.1832 11.9349 15.4236 11.6393 15.6242 11.3153C15.931 10.8197 16.1803 10.243 16.615 9.84091C16.671 9.78915 16.8729 9.59833 16.8729 9.76999C16.8729 10.0561 16.6112 10.3822 16.4667 10.6082C16.3009 10.8674 16.0822 11.0685 15.9359 11.3368C15.8251 11.5398 15.6031 11.6776 15.4953 11.887C15.3016 12.2628 15.081 12.6246 14.8871 13.0002C14.8312 13.1084 14.7548 13.3872 14.6678 13.4645C14.6051 13.5202 14.5772 13.3214 14.5776 13.314C14.6065 12.677 15.0165 11.9871 15.2567 11.4098C15.5254 10.7641 16.0454 10.3018 16.4818 9.76354C17.0301 9.08722 17.6359 8.48798 18.2355 7.85505C18.5281 7.54617 19.1018 6.49042 19.6927 6.86642C19.8423 6.96163 19.942 6.93948 20.1139 6.9137C20.2017 6.90053 20.5578 6.8045 20.5309 6.82343C20.2308 7.03455 19.8744 7.18354 19.5573 7.37148C19.4338 7.44463 19.3069 7.51276 19.179 7.5778C19.0968 7.61961 18.9019 7.7728 18.9233 7.68312C18.9628 7.51713 19.2591 7.40518 19.3746 7.34784C19.9341 7.06994 20.509 6.82547 21.066 6.54189C21.1809 6.48342 21.1799 6.52951 21.0875 6.58917C20.6406 6.87781 20.0884 7.02783 19.611 7.26187C19.5778 7.27816 18.7198 7.83339 19.0372 7.84001C19.3358 7.84623 19.6547 7.72135 19.9334 7.62939C20.1489 7.55825 20.3656 7.48857 20.0022 7.60574C19.7079 7.7006 19.3886 7.77753 19.1124 7.91953C18.7897 8.08543 18.5166 8.39439 18.2463 8.63091C18.0959 8.76249 17.9663 8.89619 17.8401 9.05001C17.819 9.07562 17.61 9.34929 17.6552 9.14887C17.7988 8.5122 18.5462 8.08446 19.0737 7.79058C19.4006 7.60842 19.7068 7.39052 20.0516 7.22963C20.2099 7.15576 20.1995 7.09863 20.0881 7.1931C19.7769 7.45697 19.3361 7.60904 18.9404 7.68097C18.5931 7.74412 18.1913 8.02517 18.0034 8.31498C17.722 8.74898 17.4652 9.1882 17.176 9.61525C16.7911 10.1833 16.2125 10.6163 15.88 11.2271C15.443 12.0301 15.0484 12.8474 14.6485 13.6708C14.3861 14.211 14.0656 14.7205 13.8082 15.2612C13.7202 15.4458 13.849 14.898 13.8554 14.8743C14.064 14.1026 14.3754 13.4351 14.7839 12.7466C14.9533 12.4612 15.1152 12.1759 15.261 11.8784C15.4102 11.5739 15.5894 11.2881 15.7553 10.9929C15.8252 10.8685 15.8624 10.7959 15.9187 10.6705C15.9387 10.6258 15.9675 10.4901 15.981 10.5373C16.0163 10.661 15.8241 10.8877 15.7704 10.9628C15.5071 11.3306 15.2218 11.6673 14.9988 12.0632C14.8247 12.3723 14.6634 12.6859 14.4314 12.9573C14.2266 13.1968 14.0206 13.4067 13.907 13.7095C13.7619 14.0964 13.6718 14.5446 13.604 14.9517C13.5561 15.2391 13.4354 15.5122 13.4299 15.8028C13.4265 15.9841 13.349 16.2173 13.273 16.3788C13.1079 16.7295 13.015 17.1012 12.9442 17.4835C12.9278 17.5719 12.8288 18.1049 12.8109 18.0423C12.7649 17.8813 12.8218 17.6553 12.8496 17.505C12.9711 16.847 13.1511 16.1999 13.288 15.5449C13.4372 14.8313 13.5471 14.1644 13.8253 13.4967C14.1001 12.8372 14.3435 12.1851 14.7237 11.5689C14.9533 11.1968 15.2522 10.832 15.5576 10.5201C15.9078 10.1623 16.3368 9.91676 16.7289 9.61095C16.7786 9.57224 16.8474 9.42785 16.8708 9.4863C16.9035 9.5682 16.8352 9.64871 16.7784 9.69477C16.5025 9.91812 16.1816 10.0953 15.8843 10.2879C15.701 10.4067 15.5473 10.4708 15.448 10.6662C15.1201 11.3113 14.6434 11.9066 14.382 12.5833C14.27 12.8732 14.132 13.2122 14.0961 13.5203C14.0871 13.5977 14.1062 13.7471 14.0489 13.8126C13.9013 13.9812 14.2431 13.4043 14.3841 13.2302C14.877 12.6218 15.4366 12.0628 16.0154 11.5366C16.1405 11.4229 16.2487 11.3293 16.3764 11.2271C16.3962 11.2113 16.4305 11.1686 16.4431 11.1906C16.4921 11.2764 16.3024 11.5949 16.2797 11.6419C16.0904 12.0351 15.8843 12.4306 15.635 12.7896C15.3224 13.2398 14.9477 13.6174 14.7452 14.135C14.6628 14.3456 14.5703 14.5874 14.4529 14.7798C14.1362 15.2989 14.0004 15.9434 13.7953 16.512C13.6484 16.9191 13.4713 17.3214 13.3525 17.7371" stroke="black" stroke-opacity="0.46" stroke-width="0.4" stroke-linecap="round"/>
<path d="M11.045 20.7703C11.0419 20.8656 11.0367 20.9761 10.9533 21.0371C10.9337 21.0514 10.909 21.0696 10.9448 21.0427C11.0259 20.9819 10.947 21.1021 10.949 21.1175C10.9508 21.1309 11.0255 21.0663 11.0266 21.0653C11.0502 21.0441 11.0829 21.0182 11.093 20.9863C11.0994 20.9659 11.1077 20.9288 11.1085 20.9072C11.1121 20.8111 11.1255 20.7236 11.1473 20.6292C11.1827 20.476 11.2643 20.3287 11.3484 20.1973C11.4124 20.0974 11.5169 20.0249 11.5771 19.927C11.691 19.7419 11.8359 19.5624 11.9843 19.4048C12.0649 19.3192 12.1842 19.2213 12.2285 19.1105C12.2667 19.0149 12.425 18.9542 12.5121 18.9186C12.5346 18.9094 12.5591 18.8968 12.5199 18.9122C12.469 18.9323 12.4234 18.9607 12.3823 18.9969C12.3314 19.0417 12.3146 19.0834 12.2771 19.1345C12.2498 19.1718 12.2385 19.2111 12.1953 19.2333C12.1714 19.2456 12.1289 19.2534 12.112 19.2743C11.9694 19.4508 11.8069 19.6149 11.6717 19.7979C11.5182 20.0055 11.4114 20.2473 11.2835 20.4711C11.2075 20.6041 11.1423 20.7407 11.0577 20.8691C10.9488 21.0345 10.7719 21.1255 10.6533 21.2827C10.5999 21.3536 10.5376 21.3972 10.4734 21.4556C10.4578 21.4697 10.4238 21.494 10.472 21.4901C10.5769 21.4818 10.6824 21.4287 10.7726 21.3786C10.8336 21.3447 10.9205 21.2995 10.9547 21.2333C10.9711 21.2014 10.9783 21.1652 10.9956 21.1338C11.0365 21.0597 11.102 21.0098 11.1318 20.9263C11.1633 20.8382 11.1809 20.7687 11.1861 20.6737C11.1983 20.4508 11.3011 20.2049 11.3978 20.0082C11.5293 19.7409 11.6609 19.4749 11.7944 19.2079" stroke="black" stroke-width="0.4" stroke-linecap="round"/>
<defs>
<filter id="filter0_b_0_1" x="6.69995" y="1.72687" width="19.469" height="23.284" filterUnits="userSpaceOnUse" color-interpolation-filters="sRGB">
<feFlood flood-opacity="0" result="BackgroundImageFix"/>
<feGaussianBlur in="BackgroundImageFix" stdDeviation="2"/>
<feComposite in2="SourceAlpha" operator="in" result="effect1_backgroundBlur_0_1"/>
<feBlend mode="normal" in="SourceGraphic" in2="effect1_backgroundBlur_0_1" result="shape"/>
</filter>
</defs>
</svg>
